<svg width="18" height="16" viewBox="0 0 18 16" xmlns="http://www.w3.org/2000/svg">
    <path d="M6.296 15a.365.365 0 0 1-.354-.455l.559-2.199H3.817a1.038 1.038 0 0 1-.993-.718l-.032-.12-1.774-9.29a1.023 1.023 0 0 1 .225-.85c.199-.233.49-.368.797-.368h12.143a1.04 1.04 0 0 1 1.024.838l1.776 9.291c.056.303-.027.614-.226.85a1.044 1.044 0 0 1-.798.367h-5.598v1.924h2.29c.177 0 .324.125.358.292l.008.073a.365.365 0 0 1-.365.365H6.296zM9.63 9.692H7.932L6.766 14.27H9.63V9.692zm4.554-7.962H2.04a.316.316 0 0 0-.24.11.292.292 0 0 0-.065.243l1.774 9.286a.308.308 0 0 0 .306.247h2.872l.607-2.379a.365.365 0 0 1 .354-.275h2.348c.202 0 .365.163.365.365v2.289h5.6a.315.315 0 0 0 .19-.063l.049-.047a.295.295 0 0 0 .065-.242L14.49 1.978a.31.31 0 0 0-.305-.248zm-1.11 7.193.136.667a.365.365 0 1 1-.716.145l-.135-.667a.365.365 0 1 1 .716-.145zm1.352 0 .136.666a.365.365 0 1 1-.716.145l-.135-.666a.365.365 0 1 1 .715-.145z" fill="#8B909A" fill-rule="nonzero" stroke="#8B909A" stroke-width=".25"/>
</svg>
