<svg width="24" height="24" viewBox="0 0 24 24" xmlns="http://www.w3.org/2000/svg">
    <g fill="#959598" fill-rule="evenodd">
        <path d="M23.5 4.5h-15a.5.5 0 0 1 0-1h15a.5.5 0 0 1 0 1M23.5 12.5h-15a.5.5 0 0 1 0-1h15a.5.5 0 0 1 0 1M23.5 20.5h-15a.5.5 0 0 1 0-1h15a.5.5 0 0 1 0 1M1.5 2.5A.5.5 0 0 0 1 3v2a.5.5 0 0 0 .5.5h2A.5.5 0 0 0 4 5V3a.5.5 0 0 0-.5-.5h-2zm2 4h-2C.673 6.5 0 5.827 0 5V3c0-.827.673-1.5 1.5-1.5h2C4.327 1.5 5 2.173 5 3v2c0 .827-.673 1.5-1.5 1.5zM1.5 10.5a.5.5 0 0 0-.5.5v2a.5.5 0 0 0 .5.5h2A.5.5 0 0 0 4 13v-2a.5.5 0 0 0-.5-.5h-2zm2 4h-2C.673 14.5 0 13.827 0 13v-2c0-.827.673-1.5 1.5-1.5h2c.827 0 1.5.673 1.5 1.5v2c0 .827-.673 1.5-1.5 1.5zM1.5 18.5a.5.5 0 0 0-.5.5v2a.5.5 0 0 0 .5.5h2A.5.5 0 0 0 4 21v-2a.5.5 0 0 0-.5-.5h-2zm2 4h-2C.673 22.5 0 21.827 0 21v-2c0-.827.673-1.5 1.5-1.5h2c.827 0 1.5.673 1.5 1.5v2c0 .827-.673 1.5-1.5 1.5z"/>
    </g>
</svg>
